<svg xmlns="http://www.w3.org/2000/svg" viewBox="0 0 24 24" fill="currentColor">
  <path d="M22.282 9.821a5.985 5.985 0 0 0-.516-4.91 6.046 6.046 0 0 0-6.51-2.9A6.065 6.065 0 0 0 4.981 4.18a5.985 5.985 0 0 0-3.998 2.9 6.046 6.046 0 0 0 .743 7.097 5.98 5.98 0 0 0 .51 4.911 6.051 6.051 0 0 0 6.515 2.9A5.985 5.985 0 0 0 13.26 24a6.055 6.055 0 0 0 5.772-4.206 5.99 5.99 0 0 0 3.997-2.9 6.056 6.056 0 0 0-.747-7.073zM13.06 3.696a4.724 4.724 0 0 1 3.788 1.945 4.704 4.704 0 0 1-.747 6.59l-.002.001-.001.001-.003.002-.001.001-.001.001-5.795-2.58a4.652 4.652 0 0 1-2.52-2.507 4.724 4.724 0 0 1 1.941-3.79 4.714 4.714 0 0 1 3.43-.863zm-7.89 3.086a4.724 4.724 0 0 1 3.43.864 4.706 4.706 0 0 1 1.942 3.79l-5.793 2.579a4.706 4.706 0 0 1-1.945-3.79 4.724 4.724 0 0 1 2.366-3.443zm-1.77 9.928a4.706 4.706 0 0 1-.51-3.49 4.724 4.724 0 0 1 1.94-3.788l5.793 2.578v.002a4.705 4.705 0 0 1 1.945 3.788 4.724 4.724 0 0 1-3.43.865 4.714 4.714 0 0 1-3.43-.865 4.706 4.706 0 0 1-2.308-2.09zm7.89 3.086a4.724 4.724 0 0 1-3.788-1.945 4.704 4.704 0 0 1 .747-6.59l5.793-2.579a4.706 4.706 0 0 1 1.945 3.79 4.724 4.724 0 0 1-1.941 3.788 4.714 4.714 0 0 1-3.43.864 4.724 4.724 0 0 1-1.326-.328zm5.322-7.062l-5.793-2.578a4.706 4.706 0 0 1-1.945-3.788 4.724 4.724 0 0 1 3.43-.865 4.714 4.714 0 0 1 3.43.865 4.706 4.706 0 0 1 2.308 2.09 4.724 4.724 0 0 1-.51 3.49 4.706 4.706 0 0 1-1.92 1.766z"/>
</svg>